# xmcd
#
# Track frame offsets:
#	150
#	23364
#	34935
#	59236
#	72988
#	88383
#	110933
#	129369
#	143361
#	164522
#	190998
#	217191
#	230927
#	252347
#	270962
#	285042
#	293402
#	318711
#
# Disc length: 4670 seconds
#
# Revision: 1
# Processed by: cddbd v1.5.2PL0 Copyright (c) Steve Scherf et al.
# Submitted via: audiograbber 1.83.01
#
DISCID=16123c12
DTITLE=Various Artist - Roots and New For Blues Lovers 2008
DYEAR=2008
DGENRE=Blues
TTITLE0=Bjorn Berge - Stringmachine
TTITLE1=Arthur Neilson - Guitar on parade
TTITLE2=Tom Principato - Too dawn funky
TTITLE3=Mighty Mo Rodgers - Hambone blues
TTITLE4=Larry Crockett - My wish
TTITLE5=Beverly Jo Scott - Entre deux
TTITLE6=Les Marvellous Pig Noise - Quand le soleil descend
TTITLE7=Jean Chartron - Baby please don't go
TTITLE8=Patrick Verbeke - Le blues du bebe heureux
TTITLE9=Pufa Fe' - Hold the rain
TTITLE10=Eric Bibb - No more cane on the brazos
TTITLE11=Popa Chubby - You can't stop love
TTITLE12=Neal Black - Bad rose tatoo
TTITLE13=Big Ed Sullivan - One piece at a time
TTITLE14=Webb Wilder - How long can she last
TTITLE15=Little Bob - Bama lama bama loo
TTITLE16=Point Blank - Moving
TTITLE17=Data track - Data track
EXTD=
EXTT0=
EXTT1=
EXTT2=
EXTT3=
EXTT4=
EXTT5=
EXTT6=
EXTT7=
EXTT8=
EXTT9=
EXTT10=
EXTT11=
EXTT12=
EXTT13=
EXTT14=
EXTT15=
EXTT16=
EXTT17=
PLAYORDER=
